<svg width="470" height="344" viewBox="0 0 470 344" fill="none" xmlns="http://www.w3.org/2000/svg">
<path d="M164.648 132.641C160.264 191.496 201.881 261.012 224.553 285.29C225.475 286.277 226.922 286.485 228.054 285.749C253.455 269.23 295.466 198.299 294.936 138.171C294.41 78.4966 251.307 27.2865 228.05 5.22805C226.813 4.05465 224.857 4.17468 223.762 5.48198C204.725 28.2141 168.976 74.5184 164.648 132.641Z" fill="#7DD0D2" fill-opacity="0.8" stroke="#7DD0D2"/>
<path d="M229.818 143.769C207.993 88.9353 140.144 44.6588 109.132 32.7584C107.871 32.2746 106.479 32.7208 105.784 33.8784C90.1775 59.8516 83.4597 142.017 110.259 195.845C136.856 249.266 198.028 276.434 228.594 286.082C230.22 286.596 231.926 285.631 232.338 283.977C239.502 255.204 251.371 197.92 229.818 143.769Z" fill="#F2D0F2" fill-opacity="0.8" stroke="#F2D0F2"/>
<path d="M246.471 121.086C217.016 171.694 223.691 251.552 233.337 283.809C233.853 285.534 235.498 286.66 237.28 286.403C267.736 282.001 335.602 236.906 361.211 183.062C386.573 129.737 370.823 65.6256 359.576 35.2094C358.788 33.077 356.387 32.0929 354.313 33.0256C326.993 45.3151 275.453 71.2911 246.471 121.086Z" fill="#ABC8D1" fill-opacity="0.8" stroke="#ABC8D1"/>
<path d="M1.0296 124.276C1.08179 122.927 2.08671 121.865 3.42473 121.682C36.3345 117.176 117.118 123.305 162.649 160.851C207.614 197.93 224.794 253.85 232.371 282.517C232.806 284.166 231.775 285.833 230.103 286.166C198.668 292.43 131.975 298.08 82.9419 264.071C33.5355 229.802 -0.141353 154.555 1.0296 124.276Z" fill="#BF93B8" fill-opacity="0.8" stroke="#BF93B8"/>
<path d="M323.622 147.401C272.678 177.191 239.061 250.909 231.939 283.356C231.649 284.675 232.299 285.985 233.547 286.499C261.562 298.042 343.801 292.384 393.005 257.826C441.838 223.529 459.54 158.975 464.503 127.306C464.767 125.622 463.558 124.079 461.86 123.919C432.341 121.143 373.932 117.983 323.622 147.401Z" fill="#D9D9D9" fill-opacity="0.8" stroke="#D9D9D9"/>
</svg>
